# xmcd
#
# Track frame offsets:
#	150
#	17652
#	43532
#	70907
#	95220
#	112982
#	134577
#	165097
#	180820
#	188712
#	217572
#	236125
#
# Disc length: 3606
#
# Revision: 3
# Processed by: cddbd v1.5.1PL0 Copyright (c) Steve Scherf et al.
# Submitted via: CDex 1.50beta10
# Normalized: r2:TRMNUM
#
DISCID=930e140c
DTITLE=Robin Nolan Trio - Swings and Roundabouts
DYEAR=1999
DGENRE=Jazz
TTITLE0=Django's Tiger
TTITLE1=Luna Tango
TTITLE2=Tea for Two
TTITLE3=From the Banks of the Odra
TTITLE4=Oh! Lady be Good
TTITLE5=El Puente
TTITLE6=Nuages
TTITLE7=Minor Swing
TTITLE8=Tony's Tune
TTITLE9=Trouble in Paradise
TTITLE10=Douce Ambiance
TTITLE11=Senor Bob
EXTD=YEAR: 1999
EXTT0=
EXTT1=
EXTT2=
EXTT3=
EXTT4=
EXTT5=
EXTT6=
EXTT7=
EXTT8=
EXTT9=
EXTT10=
EXTT11=
PLAYORDER=
